<svg width="478" height="614" viewBox="0 0 478 614" fill="none" xmlns="http://www.w3.org/2000/svg">
<g clip-path="url(#clip0)">
<rect width="2" height="2" rx="1" fill="#034363" fill-opacity="0.4"/>
<rect y="272" width="2" height="2" rx="1" fill="#034363" fill-opacity="0.4"/>
<rect y="136" width="2" height="2" rx="1" fill="#034363" fill-opacity="0.4"/>
<rect y="408" width="2" height="2" rx="1" fill="#034363" fill-opacity="0.4"/>
<rect y="544" width="2" height="2" rx="1" fill="#034363" fill-opacity="0.4"/>
<rect y="68" width="2" height="2" rx="1" fill="#034363" fill-opacity="0.4"/>
<rect y="340" width="2" height="2" rx="1" fill="#034363" fill-opacity="0.4"/>
<rect y="204" width="2" height="2" rx="1" fill="#034363" fill-opacity="0.4"/>
<rect y="476" width="2" height="2" rx="1" fill="#034363" fill-opacity="0.4"/>
<rect y="612" width="2" height="2" rx="1" fill="#034363" fill-opacity="0.4"/>
<rect y="34" width="2" height="2" rx="1" fill="#034363" fill-opacity="0.4"/>
<rect y="306" width="2" height="2" rx="1" fill="#034363" fill-opacity="0.4"/>
<rect y="170" width="2" height="2" rx="1" fill="#034363" fill-opacity="0.4"/>
<rect y="442" width="2" height="2" rx="1" fill="#034363" fill-opacity="0.4"/>
<rect y="578" width="2" height="2" rx="1" fill="#034363" fill-opacity="0.4"/>
<rect y="102" width="2" height="2" rx="1" fill="#034363" fill-opacity="0.4"/>
<rect y="374" width="2" height="2" rx="1" fill="#034363" fill-opacity="0.4"/>
<rect y="238" width="2" height="2" rx="1" fill="#034363" fill-opacity="0.4"/>
<rect y="510" width="2" height="2" rx="1" fill="#034363" fill-opacity="0.4"/>
<rect x="272" width="2" height="2" rx="1" fill="#034363" fill-opacity="0.4"/>
<rect x="272" y="272" width="2" height="2" rx="1" fill="#034363" fill-opacity="0.4"/>
<rect x="272" y="136" width="2" height="2" rx="1" fill="#034363" fill-opacity="0.4"/>
<rect x="272" y="408" width="2" height="2" rx="1" fill="#034363" fill-opacity="0.4"/>
<rect x="272" y="544" width="2" height="2" rx="1" fill="#034363" fill-opacity="0.4"/>
<rect x="272" y="68" width="2" height="2" rx="1" fill="#034363" fill-opacity="0.4"/>
<rect x="272" y="340" width="2" height="2" rx="1" fill="#034363" fill-opacity="0.4"/>
<rect x="272" y="204" width="2" height="2" rx="1" fill="#034363" fill-opacity="0.4"/>
<rect x="272" y="476" width="2" height="2" rx="1" fill="#034363" fill-opacity="0.4"/>
<rect x="272" y="612" width="2" height="2" rx="1" fill="#034363" fill-opacity="0.4"/>
<rect x="272" y="34" width="2" height="2" rx="1" fill="#034363" fill-opacity="0.4"/>
<rect x="272" y="306" width="2" height="2" rx="1" fill="#034363" fill-opacity="0.4"/>
<rect x="272" y="170" width="2" height="2" rx="1" fill="#034363" fill-opacity="0.4"/>
<rect x="272" y="442" width="2" height="2" rx="1" fill="#034363" fill-opacity="0.4"/>
<rect x="272" y="578" width="2" height="2" rx="1" fill="#034363" fill-opacity="0.4"/>
<rect x="272" y="102" width="2" height="2" rx="1" fill="#034363" fill-opacity="0.4"/>
<rect x="272" y="374" width="2" height="2" rx="1" fill="#034363" fill-opacity="0.4"/>
<rect x="272" y="238" width="2" height="2" rx="1" fill="#034363" fill-opacity="0.4"/>
<rect x="272" y="510" width="2" height="2" rx="1" fill="#034363" fill-opacity="0.4"/>
<rect x="136" width="2" height="2" rx="1" fill="#034363" fill-opacity="0.4"/>
<rect x="136" y="272" width="2" height="2" rx="1" fill="#034363" fill-opacity="0.4"/>
<rect x="136" y="136" width="2" height="2" rx="1" fill="#034363" fill-opacity="0.4"/>
<rect x="136" y="408" width="2" height="2" rx="1" fill="#034363" fill-opacity="0.4"/>
<rect x="136" y="544" width="2" height="2" rx="1" fill="#034363" fill-opacity="0.4"/>
<rect x="136" y="68" width="2" height="2" rx="1" fill="#034363" fill-opacity="0.4"/>
<rect x="136" y="340" width="2" height="2" rx="1" fill="#034363" fill-opacity="0.4"/>
<rect x="136" y="204" width="2" height="2" rx="1" fill="#034363" fill-opacity="0.4"/>
<rect x="136" y="476" width="2" height="2" rx="1" fill="#034363" fill-opacity="0.4"/>
<rect x="136" y="612" width="2" height="2" rx="1" fill="#034363" fill-opacity="0.4"/>
<rect x="136" y="34" width="2" height="2" rx="1" fill="#034363" fill-opacity="0.4"/>
<rect x="136" y="306" width="2" height="2" rx="1" fill="#034363" fill-opacity="0.4"/>
<rect x="136" y="170" width="2" height="2" rx="1" fill="#034363" fill-opacity="0.4"/>
<rect x="136" y="442" width="2" height="2" rx="1" fill="#034363" fill-opacity="0.4"/>
<rect x="136" y="578" width="2" height="2" rx="1" fill="#034363" fill-opacity="0.4"/>
<rect x="136" y="102" width="2" height="2" rx="1" fill="#034363" fill-opacity="0.4"/>
<rect x="136" y="374" width="2" height="2" rx="1" fill="#034363" fill-opacity="0.4"/>
<rect x="136" y="238" width="2" height="2" rx="1" fill="#034363" fill-opacity="0.4"/>
<rect x="136" y="510" width="2" height="2" rx="1" fill="#034363" fill-opacity="0.4"/>
<rect x="408" width="2" height="2" rx="1" fill="#034363" fill-opacity="0.4"/>
<rect x="408" y="272" width="2" height="2" rx="1" fill="#034363" fill-opacity="0.4"/>
<rect x="408" y="136" width="2" height="2" rx="1" fill="#034363" fill-opacity="0.4"/>
<rect x="408" y="408" width="2" height="2" rx="1" fill="#034363" fill-opacity="0.4"/>
<rect x="408" y="544" width="2" height="2" rx="1" fill="#034363" fill-opacity="0.4"/>
<rect x="408" y="68" width="2" height="2" rx="1" fill="#034363" fill-opacity="0.4"/>
<rect x="408" y="340" width="2" height="2" rx="1" fill="#034363" fill-opacity="0.4"/>
<rect x="408" y="204" width="2" height="2" rx="1" fill="#034363" fill-opacity="0.4"/>
<rect x="408" y="476" width="2" height="2" rx="1" fill="#034363" fill-opacity="0.4"/>
<rect x="408" y="612" width="2" height="2" rx="1" fill="#034363" fill-opacity="0.4"/>
<rect x="408" y="34" width="2" height="2" rx="1" fill="#034363" fill-opacity="0.4"/>
<rect x="408" y="306" width="2" height="2" rx="1" fill="#034363" fill-opacity="0.4"/>
<rect x="408" y="170" width="2" height="2" rx="1" fill="#034363" fill-opacity="0.4"/>
<rect x="408" y="442" width="2" height="2" rx="1" fill="#034363" fill-opacity="0.4"/>
<rect x="408" y="578" width="2" height="2" rx="1" fill="#034363" fill-opacity="0.4"/>
<rect x="408" y="102" width="2" height="2" rx="1" fill="#034363" fill-opacity="0.4"/>
<rect x="408" y="374" width="2" height="2" rx="1" fill="#034363" fill-opacity="0.4"/>
<rect x="408" y="238" width="2" height="2" rx="1" fill="#034363" fill-opacity="0.4"/>
<rect x="408" y="510" width="2" height="2" rx="1" fill="#034363" fill-opacity="0.4"/>
<rect x="68" width="2" height="2" rx="1" fill="#034363" fill-opacity="0.4"/>
<rect x="68" y="272" width="2" height="2" rx="1" fill="#034363" fill-opacity="0.4"/>
<rect x="68" y="136" width="2" height="2" rx="1" fill="#034363" fill-opacity="0.4"/>
<rect x="68" y="408" width="2" height="2" rx="1" fill="#034363" fill-opacity="0.4"/>
<rect x="68" y="544" width="2" height="2" rx="1" fill="#034363" fill-opacity="0.4"/>
<rect x="68" y="68" width="2" height="2" rx="1" fill="#034363" fill-opacity="0.4"/>
<rect x="68" y="340" width="2" height="2" rx="1" fill="#034363" fill-opacity="0.4"/>
<rect x="68" y="204" width="2" height="2" rx="1" fill="#034363" fill-opacity="0.4"/>
<rect x="68" y="476" width="2" height="2" rx="1" fill="#034363" fill-opacity="0.4"/>
<rect x="68" y="612" width="2" height="2" rx="1" fill="#034363" fill-opacity="0.4"/>
<rect x="68" y="34" width="2" height="2" rx="1" fill="#034363" fill-opacity="0.4"/>
<rect x="68" y="306" width="2" height="2" rx="1" fill="#034363" fill-opacity="0.4"/>
<rect x="68" y="170" width="2" height="2" rx="1" fill="#034363" fill-opacity="0.4"/>
<rect x="68" y="442" width="2" height="2" rx="1" fill="#034363" fill-opacity="0.4"/>
<rect x="68" y="578" width="2" height="2" rx="1" fill="#034363" fill-opacity="0.4"/>
<rect x="68" y="102" width="2" height="2" rx="1" fill="#034363" fill-opacity="0.4"/>
<rect x="68" y="374" width="2" height="2" rx="1" fill="#034363" fill-opacity="0.4"/>
<rect x="68" y="238" width="2" height="2" rx="1" fill="#034363" fill-opacity="0.4"/>
<rect x="68" y="510" width="2" height="2" rx="1" fill="#034363" fill-opacity="0.4"/>
<rect x="340" width="2" height="2" rx="1" fill="#034363" fill-opacity="0.4"/>
<rect x="340" y="272" width="2" height="2" rx="1" fill="#034363" fill-opacity="0.4"/>
<rect x="340" y="136" width="2" height="2" rx="1" fill="#034363" fill-opacity="0.4"/>
<rect x="340" y="408" width="2" height="2" rx="1" fill="#034363" fill-opacity="0.4"/>
<rect x="340" y="544" width="2" height="2" rx="1" fill="#034363" fill-opacity="0.4"/>
<rect x="340" y="68" width="2" height="2" rx="1" fill="#034363" fill-opacity="0.4"/>
<rect x="340" y="340" width="2" height="2" rx="1" fill="#034363" fill-opacity="0.4"/>
<rect x="340" y="204" width="2" height="2" rx="1" fill="#034363" fill-opacity="0.4"/>
<rect x="340" y="476" width="2" height="2" rx="1" fill="#034363" fill-opacity="0.4"/>
<rect x="340" y="612" width="2" height="2" rx="1" fill="#034363" fill-opacity="0.4"/>
<rect x="340" y="34" width="2" height="2" rx="1" fill="#034363" fill-opacity="0.4"/>
<rect x="340" y="306" width="2" height="2" rx="1" fill="#034363" fill-opacity="0.4"/>
<rect x="340" y="170" width="2" height="2" rx="1" fill="#034363" fill-opacity="0.4"/>
<rect x="340" y="442" width="2" height="2" rx="1" fill="#034363" fill-opacity="0.4"/>
<rect x="340" y="578" width="2" height="2" rx="1" fill="#034363" fill-opacity="0.4"/>
<rect x="340" y="102" width="2" height="2" rx="1" fill="#034363" fill-opacity="0.4"/>
<rect x="340" y="374" width="2" height="2" rx="1" fill="#034363" fill-opacity="0.4"/>
<rect x="340" y="238" width="2" height="2" rx="1" fill="#034363" fill-opacity="0.4"/>
<rect x="340" y="510" width="2" height="2" rx="1" fill="#034363" fill-opacity="0.4"/>
<rect x="204" width="2" height="2" rx="1" fill="#034363" fill-opacity="0.4"/>
<rect x="204" y="272" width="2" height="2" rx="1" fill="#034363" fill-opacity="0.4"/>
<rect x="204" y="136" width="2" height="2" rx="1" fill="#034363" fill-opacity="0.4"/>
<rect x="204" y="408" width="2" height="2" rx="1" fill="#034363" fill-opacity="0.4"/>
<rect x="204" y="544" width="2" height="2" rx="1" fill="#034363" fill-opacity="0.4"/>
<rect x="204" y="68" width="2" height="2" rx="1" fill="#034363" fill-opacity="0.4"/>
<rect x="204" y="340" width="2" height="2" rx="1" fill="#034363" fill-opacity="0.4"/>
<rect x="204" y="204" width="2" height="2" rx="1" fill="#034363" fill-opacity="0.4"/>
<rect x="204" y="476" width="2" height="2" rx="1" fill="#034363" fill-opacity="0.4"/>
<rect x="204" y="612" width="2" height="2" rx="1" fill="#034363" fill-opacity="0.4"/>
<rect x="204" y="34" width="2" height="2" rx="1" fill="#034363" fill-opacity="0.4"/>
<rect x="204" y="306" width="2" height="2" rx="1" fill="#034363" fill-opacity="0.4"/>
<rect x="204" y="170" width="2" height="2" rx="1" fill="#034363" fill-opacity="0.4"/>
<rect x="204" y="442" width="2" height="2" rx="1" fill="#034363" fill-opacity="0.4"/>
<rect x="204" y="578" width="2" height="2" rx="1" fill="#034363" fill-opacity="0.4"/>
<rect x="204" y="102" width="2" height="2" rx="1" fill="#034363" fill-opacity="0.4"/>
<rect x="204" y="374" width="2" height="2" rx="1" fill="#034363" fill-opacity="0.4"/>
<rect x="204" y="238" width="2" height="2" rx="1" fill="#034363" fill-opacity="0.4"/>
<rect x="204" y="510" width="2" height="2" rx="1" fill="#034363" fill-opacity="0.4"/>
<rect x="34" width="2" height="2" rx="1" fill="#034363" fill-opacity="0.4"/>
<rect x="34" y="272" width="2" height="2" rx="1" fill="#034363" fill-opacity="0.4"/>
<rect x="34" y="136" width="2" height="2" rx="1" fill="#034363" fill-opacity="0.4"/>
<rect x="34" y="408" width="2" height="2" rx="1" fill="#034363" fill-opacity="0.4"/>
<rect x="34" y="544" width="2" height="2" rx="1" fill="#034363" fill-opacity="0.4"/>
<rect x="34" y="68" width="2" height="2" rx="1" fill="#034363" fill-opacity="0.4"/>
<rect x="34" y="340" width="2" height="2" rx="1" fill="#034363" fill-opacity="0.4"/>
<rect x="34" y="204" width="2" height="2" rx="1" fill="#034363" fill-opacity="0.4"/>
<rect x="34" y="476" width="2" height="2" rx="1" fill="#034363" fill-opacity="0.4"/>
<rect x="34" y="612" width="2" height="2" rx="1" fill="#034363" fill-opacity="0.4"/>
<rect x="34" y="34" width="2" height="2" rx="1" fill="#034363" fill-opacity="0.4"/>
<rect x="34" y="306" width="2" height="2" rx="1" fill="#034363" fill-opacity="0.4"/>
<rect x="34" y="170" width="2" height="2" rx="1" fill="#034363" fill-opacity="0.4"/>
<rect x="34" y="442" width="2" height="2" rx="1" fill="#034363" fill-opacity="0.4"/>
<rect x="34" y="578" width="2" height="2" rx="1" fill="#034363" fill-opacity="0.4"/>
<rect x="34" y="102" width="2" height="2" rx="1" fill="#034363" fill-opacity="0.4"/>
<rect x="34" y="374" width="2" height="2" rx="1" fill="#034363" fill-opacity="0.4"/>
<rect x="34" y="238" width="2" height="2" rx="1" fill="#034363" fill-opacity="0.4"/>
<rect x="34" y="510" width="2" height="2" rx="1" fill="#034363" fill-opacity="0.4"/>
<rect x="306" width="2" height="2" rx="1" fill="#034363" fill-opacity="0.4"/>
<rect x="306" y="272" width="2" height="2" rx="1" fill="#034363" fill-opacity="0.4"/>
<rect x="306" y="136" width="2" height="2" rx="1" fill="#034363" fill-opacity="0.4"/>
<rect x="306" y="408" width="2" height="2" rx="1" fill="#034363" fill-opacity="0.4"/>
<rect x="306" y="544" width="2" height="2" rx="1" fill="#034363" fill-opacity="0.4"/>
<rect x="306" y="68" width="2" height="2" rx="1" fill="#034363" fill-opacity="0.4"/>
<rect x="306" y="340" width="2" height="2" rx="1" fill="#034363" fill-opacity="0.4"/>
<rect x="306" y="204" width="2" height="2" rx="1" fill="#034363" fill-opacity="0.4"/>
<rect x="306" y="476" width="2" height="2" rx="1" fill="#034363" fill-opacity="0.4"/>
<rect x="306" y="612" width="2" height="2" rx="1" fill="#034363" fill-opacity="0.4"/>
<rect x="306" y="34" width="2" height="2" rx="1" fill="#034363" fill-opacity="0.4"/>
<rect x="306" y="306" width="2" height="2" rx="1" fill="#034363" fill-opacity="0.4"/>
<rect x="306" y="170" width="2" height="2" rx="1" fill="#034363" fill-opacity="0.4"/>
<rect x="306" y="442" width="2" height="2" rx="1" fill="#034363" fill-opacity="0.4"/>
<rect x="306" y="578" width="2" height="2" rx="1" fill="#034363" fill-opacity="0.4"/>
<rect x="306" y="102" width="2" height="2" rx="1" fill="#034363" fill-opacity="0.4"/>
<rect x="306" y="374" width="2" height="2" rx="1" fill="#034363" fill-opacity="0.4"/>
<rect x="306" y="238" width="2" height="2" rx="1" fill="#034363" fill-opacity="0.4"/>
<rect x="306" y="510" width="2" height="2" rx="1" fill="#034363" fill-opacity="0.4"/>
<rect x="170" width="2" height="2" rx="1" fill="#034363" fill-opacity="0.4"/>
<rect x="170" y="272" width="2" height="2" rx="1" fill="#034363" fill-opacity="0.4"/>
<rect x="170" y="136" width="2" height="2" rx="1" fill="#034363" fill-opacity="0.4"/>
<rect x="170" y="408" width="2" height="2" rx="1" fill="#034363" fill-opacity="0.4"/>
<rect x="170" y="544" width="2" height="2" rx="1" fill="#034363" fill-opacity="0.4"/>
<rect x="170" y="68" width="2" height="2" rx="1" fill="#034363" fill-opacity="0.4"/>
<rect x="170" y="340" width="2" height="2" rx="1" fill="#034363" fill-opacity="0.4"/>
<rect x="170" y="204" width="2" height="2" rx="1" fill="#034363" fill-opacity="0.4"/>
<rect x="170" y="476" width="2" height="2" rx="1" fill="#034363" fill-opacity="0.4"/>
<rect x="170" y="612" width="2" height="2" rx="1" fill="#034363" fill-opacity="0.4"/>
<rect x="170" y="34" width="2" height="2" rx="1" fill="#034363" fill-opacity="0.4"/>
<rect x="170" y="306" width="2" height="2" rx="1" fill="#034363" fill-opacity="0.4"/>
<rect x="170" y="170" width="2" height="2" rx="1" fill="#034363" fill-opacity="0.4"/>
<rect x="170" y="442" width="2" height="2" rx="1" fill="#034363" fill-opacity="0.4"/>
<rect x="170" y="578" width="2" height="2" rx="1" fill="#034363" fill-opacity="0.4"/>
<rect x="170" y="102" width="2" height="2" rx="1" fill="#034363" fill-opacity="0.4"/>
<rect x="170" y="374" width="2" height="2" rx="1" fill="#034363" fill-opacity="0.4"/>
<rect x="170" y="238" width="2" height="2" rx="1" fill="#034363" fill-opacity="0.4"/>
<rect x="170" y="510" width="2" height="2" rx="1" fill="#034363" fill-opacity="0.4"/>
<rect x="442" width="2" height="2" rx="1" fill="#034363" fill-opacity="0.4"/>
<rect x="442" y="272" width="2" height="2" rx="1" fill="#034363" fill-opacity="0.4"/>
<rect x="442" y="136" width="2" height="2" rx="1" fill="#034363" fill-opacity="0.4"/>
<rect x="442" y="408" width="2" height="2" rx="1" fill="#034363" fill-opacity="0.4"/>
<rect x="442" y="544" width="2" height="2" rx="1" fill="#034363" fill-opacity="0.4"/>
<rect x="442" y="68" width="2" height="2" rx="1" fill="#034363" fill-opacity="0.4"/>
<rect x="442" y="340" width="2" height="2" rx="1" fill="#034363" fill-opacity="0.4"/>
<rect x="442" y="204" width="2" height="2" rx="1" fill="#034363" fill-opacity="0.4"/>
<rect x="442" y="476" width="2" height="2" rx="1" fill="#034363" fill-opacity="0.4"/>
<rect x="442" y="612" width="2" height="2" rx="1" fill="#034363" fill-opacity="0.4"/>
<rect x="442" y="34" width="2" height="2" rx="1" fill="#034363" fill-opacity="0.4"/>
<rect x="442" y="306" width="2" height="2" rx="1" fill="#034363" fill-opacity="0.4"/>
<rect x="442" y="170" width="2" height="2" rx="1" fill="#034363" fill-opacity="0.4"/>
<rect x="442" y="442" width="2" height="2" rx="1" fill="#034363" fill-opacity="0.4"/>
<rect x="442" y="578" width="2" height="2" rx="1" fill="#034363" fill-opacity="0.4"/>
<rect x="442" y="102" width="2" height="2" rx="1" fill="#034363" fill-opacity="0.4"/>
<rect x="442" y="374" width="2" height="2" rx="1" fill="#034363" fill-opacity="0.4"/>
<rect x="442" y="238" width="2" height="2" rx="1" fill="#034363" fill-opacity="0.4"/>
<rect x="442" y="510" width="2" height="2" rx="1" fill="#034363" fill-opacity="0.4"/>
<rect x="476" width="2" height="2" rx="1" fill="#034363" fill-opacity="0.4"/>
<rect x="476" y="272" width="2" height="2" rx="1" fill="#034363" fill-opacity="0.4"/>
<rect x="476" y="136" width="2" height="2" rx="1" fill="#034363" fill-opacity="0.4"/>
<rect x="476" y="408" width="2" height="2" rx="1" fill="#034363" fill-opacity="0.4"/>
<rect x="476" y="544" width="2" height="2" rx="1" fill="#034363" fill-opacity="0.4"/>
<rect x="476" y="68" width="2" height="2" rx="1" fill="#034363" fill-opacity="0.4"/>
<rect x="476" y="340" width="2" height="2" rx="1" fill="#034363" fill-opacity="0.4"/>
<rect x="476" y="204" width="2" height="2" rx="1" fill="#034363" fill-opacity="0.4"/>
<rect x="476" y="476" width="2" height="2" rx="1" fill="#034363" fill-opacity="0.4"/>
<rect x="476" y="612" width="2" height="2" rx="1" fill="#034363" fill-opacity="0.4"/>
<rect x="476" y="34" width="2" height="2" rx="1" fill="#034363" fill-opacity="0.4"/>
<rect x="476" y="306" width="2" height="2" rx="1" fill="#034363" fill-opacity="0.4"/>
<rect x="476" y="170" width="2" height="2" rx="1" fill="#034363" fill-opacity="0.4"/>
<rect x="476" y="442" width="2" height="2" rx="1" fill="#034363" fill-opacity="0.4"/>
<rect x="476" y="578" width="2" height="2" rx="1" fill="#034363" fill-opacity="0.4"/>
<rect x="476" y="102" width="2" height="2" rx="1" fill="#034363" fill-opacity="0.4"/>
<rect x="476" y="374" width="2" height="2" rx="1" fill="#034363" fill-opacity="0.4"/>
<rect x="476" y="238" width="2" height="2" rx="1" fill="#034363" fill-opacity="0.4"/>
<rect x="476" y="510" width="2" height="2" rx="1" fill="#034363" fill-opacity="0.4"/>
<rect x="102" width="2" height="2" rx="1" fill="#034363" fill-opacity="0.4"/>
<rect x="102" y="272" width="2" height="2" rx="1" fill="#034363" fill-opacity="0.4"/>
<rect x="102" y="136" width="2" height="2" rx="1" fill="#034363" fill-opacity="0.4"/>
<rect x="102" y="408" width="2" height="2" rx="1" fill="#034363" fill-opacity="0.4"/>
<rect x="102" y="544" width="2" height="2" rx="1" fill="#034363" fill-opacity="0.4"/>
<rect x="102" y="68" width="2" height="2" rx="1" fill="#034363" fill-opacity="0.4"/>
<rect x="102" y="340" width="2" height="2" rx="1" fill="#034363" fill-opacity="0.4"/>
<rect x="102" y="204" width="2" height="2" rx="1" fill="#034363" fill-opacity="0.4"/>
<rect x="102" y="476" width="2" height="2" rx="1" fill="#034363" fill-opacity="0.4"/>
<rect x="102" y="612" width="2" height="2" rx="1" fill="#034363" fill-opacity="0.4"/>
<rect x="102" y="34" width="2" height="2" rx="1" fill="#034363" fill-opacity="0.4"/>
<rect x="102" y="306" width="2" height="2" rx="1" fill="#034363" fill-opacity="0.4"/>
<rect x="102" y="170" width="2" height="2" rx="1" fill="#034363" fill-opacity="0.4"/>
<rect x="102" y="442" width="2" height="2" rx="1" fill="#034363" fill-opacity="0.4"/>
<rect x="102" y="578" width="2" height="2" rx="1" fill="#034363" fill-opacity="0.4"/>
<rect x="102" y="102" width="2" height="2" rx="1" fill="#034363" fill-opacity="0.4"/>
<rect x="102" y="374" width="2" height="2" rx="1" fill="#034363" fill-opacity="0.4"/>
<rect x="102" y="238" width="2" height="2" rx="1" fill="#034363" fill-opacity="0.4"/>
<rect x="102" y="510" width="2" height="2" rx="1" fill="#034363" fill-opacity="0.4"/>
<rect x="374" width="2" height="2" rx="1" fill="#034363" fill-opacity="0.4"/>
<rect x="374" y="272" width="2" height="2" rx="1" fill="#034363" fill-opacity="0.4"/>
<rect x="374" y="136" width="2" height="2" rx="1" fill="#034363" fill-opacity="0.4"/>
<rect x="374" y="408" width="2" height="2" rx="1" fill="#034363" fill-opacity="0.4"/>
<rect x="374" y="544" width="2" height="2" rx="1" fill="#034363" fill-opacity="0.4"/>
<rect x="374" y="68" width="2" height="2" rx="1" fill="#034363" fill-opacity="0.4"/>
<rect x="374" y="340" width="2" height="2" rx="1" fill="#034363" fill-opacity="0.4"/>
<rect x="374" y="204" width="2" height="2" rx="1" fill="#034363" fill-opacity="0.4"/>
<rect x="374" y="476" width="2" height="2" rx="1" fill="#034363" fill-opacity="0.4"/>
<rect x="374" y="612" width="2" height="2" rx="1" fill="#034363" fill-opacity="0.4"/>
<rect x="374" y="34" width="2" height="2" rx="1" fill="#034363" fill-opacity="0.4"/>
<rect x="374" y="306" width="2" height="2" rx="1" fill="#034363" fill-opacity="0.4"/>
<rect x="374" y="170" width="2" height="2" rx="1" fill="#034363" fill-opacity="0.4"/>
<rect x="374" y="442" width="2" height="2" rx="1" fill="#034363" fill-opacity="0.4"/>
<rect x="374" y="578" width="2" height="2" rx="1" fill="#034363" fill-opacity="0.4"/>
<rect x="374" y="102" width="2" height="2" rx="1" fill="#034363" fill-opacity="0.4"/>
<rect x="374" y="374" width="2" height="2" rx="1" fill="#034363" fill-opacity="0.4"/>
<rect x="374" y="238" width="2" height="2" rx="1" fill="#034363" fill-opacity="0.4"/>
<rect x="374" y="510" width="2" height="2" rx="1" fill="#034363" fill-opacity="0.4"/>
<rect x="238" width="2" height="2" rx="1" fill="#034363" fill-opacity="0.4"/>
<rect x="238" y="272" width="2" height="2" rx="1" fill="#034363" fill-opacity="0.4"/>
<rect x="238" y="136" width="2" height="2" rx="1" fill="#034363" fill-opacity="0.4"/>
<rect x="238" y="408" width="2" height="2" rx="1" fill="#034363" fill-opacity="0.4"/>
<rect x="238" y="544" width="2" height="2" rx="1" fill="#034363" fill-opacity="0.4"/>
<rect x="238" y="68" width="2" height="2" rx="1" fill="#034363" fill-opacity="0.4"/>
<rect x="238" y="340" width="2" height="2" rx="1" fill="#034363" fill-opacity="0.4"/>
<rect x="238" y="204" width="2" height="2" rx="1" fill="#034363" fill-opacity="0.4"/>
<rect x="238" y="476" width="2" height="2" rx="1" fill="#034363" fill-opacity="0.4"/>
<rect x="238" y="612" width="2" height="2" rx="1" fill="#034363" fill-opacity="0.4"/>
<rect x="238" y="34" width="2" height="2" rx="1" fill="#034363" fill-opacity="0.4"/>
<rect x="238" y="306" width="2" height="2" rx="1" fill="#034363" fill-opacity="0.4"/>
<rect x="238" y="170" width="2" height="2" rx="1" fill="#034363" fill-opacity="0.4"/>
<rect x="238" y="442" width="2" height="2" rx="1" fill="#034363" fill-opacity="0.4"/>
<rect x="238" y="578" width="2" height="2" rx="1" fill="#034363" fill-opacity="0.4"/>
<rect x="238" y="102" width="2" height="2" rx="1" fill="#034363" fill-opacity="0.4"/>
<rect x="238" y="374" width="2" height="2" rx="1" fill="#034363" fill-opacity="0.4"/>
<rect x="238" y="238" width="2" height="2" rx="1" fill="#034363" fill-opacity="0.4"/>
<rect x="238" y="510" width="2" height="2" rx="1" fill="#034363" fill-opacity="0.4"/>
</g>
<defs>
<clipPath id="clip0">
<rect width="478" height="614" fill="white"/>
</clipPath>
</defs>
</svg>
