<?xml version="1.0" encoding="iso-8859-1"?>
<!-- Generator: Adobe Illustrator 19.0.0, SVG Export Plug-In . SVG Version: 6.00 Build 0)  -->
<svg version="1.1" id="Capa_1" xmlns="http://www.w3.org/2000/svg" xmlns:xlink="http://www.w3.org/1999/xlink" x="0px" y="0px"
	 viewBox="0 0 448 448" style="enable-background:new 0 0 448 448;" xml:space="preserve">
<g>
	<g>
		<path d="M423.061,200.704l-79.872-87.787c-7.232-7.168-19.52-7.189-27.115,0.363c-3.797,3.797-5.803,8.661-5.803,13.845
			c0,5.184,2.027,10.069,5.696,13.739l0.917,0.917c4.16,4.16,4.16,10.923,0,15.083c-4.075,4.096-10.688,4.181-14.869,0.213
			c0,0,0-0.021-0.021-0.021h-0.021c0,0,0,0-0.021-0.021l-0.021-0.021c0,0,0.021,0-0.021-0.021l-22.379-22.379
			c-7.552-7.552-19.904-7.552-27.456,0c-7.701,7.701-7.701,20.011-0.128,27.584l22.251,22.251c2.091,2.091,3.115,4.821,3.115,7.552
			s-1.045,5.461-3.115,7.552c-4.16,4.16-10.923,4.16-15.083,0l-43.584-43.605c-7.552-7.552-19.904-7.552-27.456,0
			c-7.701,7.701-7.701,20.011-0.128,27.584l43.584,43.584c2.091,2.091,3.115,4.821,3.115,7.552s-1.045,5.461-3.115,7.552
			c-4.16,4.16-10.923,4.16-15.083,0L109.739,135.488c-3.797-3.797-8.768-5.696-13.739-5.696s-9.941,1.899-13.739,5.675
			c-7.68,7.701-7.68,20.032-0.107,27.605l160.064,160.064c2.837,2.837,3.84,7.04,2.603,10.837c-1.259,3.819-4.523,6.613-8.491,7.232
			l-106.987,16.811c-12.992,1.856-22.677,13.013-22.677,25.984c0,5.888,4.779,10.667,10.667,10.667h201.152
			c25.643,0,49.749-9.984,67.883-28.117l33.557-33.557C438.037,314.88,448,290.816,448,265.216
			C448,241.301,439.125,218.389,423.061,200.704z"/>
	</g>
</g>
<g>
	<g>
		<path d="M183.381,109.931C167.851,75.563,133.547,53.333,96,53.333c-52.928,0-96,43.072-96,96
			c0,37.547,22.229,71.851,56.597,87.403c1.429,0.64,2.923,0.939,4.395,0.939c4.053,0,7.936-2.347,9.728-6.272
			c2.411-5.376,0.021-11.691-5.333-14.123c-26.752-12.096-44.053-38.763-44.053-67.947c0-41.173,33.493-74.667,74.667-74.667
			c29.184,0,55.851,17.301,67.947,44.053c2.411,5.376,8.747,7.787,14.101,5.333C183.424,121.621,185.813,115.307,183.381,109.931z"
			/>
	</g>
</g>
<g>
</g>
<g>
</g>
<g>
</g>
<g>
</g>
<g>
</g>
<g>
</g>
<g>
</g>
<g>
</g>
<g>
</g>
<g>
</g>
<g>
</g>
<g>
</g>
<g>
</g>
<g>
</g>
<g>
</g>
</svg>
